# xmcd
#
# Track frame offsets: 
#        150
#        17432
#        33787
#        52222
#        73432
#        105175
#        122007
#        163607
#        187780
#        221615
#        242007
#        263335
#        282387
#
# Disc length: 4033 seconds
#
# Revision: 0
# Processed by: cddbd v1.5.2PL0 Copyright (c) Steve Scherf et al.
# Submitted via: ExactAudioCopy v0.99pb4
#
DISCID=ac0fbf0d
DTITLE=Blue Dirt - Bottle Up And Go
DYEAR=1997
DGENRE=Pop
TTITLE0=Having The Blues
TTITLE1=Get Lost
TTITLE2=Looking For Trouble
TTITLE3=She Cheats Me
TTITLE4=Didn't Have The Blues
TTITLE5=Feel It When I'm Gone
TTITLE6=Whiskey Headed Women
TTITLE7=Bottle Up And Go
TTITLE8=Lonely
TTITLE9=Boozin'
TTITLE10=Bo Diddley
TTITLE11=Papa Told Me
TTITLE12=California Blues
EXTD=
EXTT0=
EXTT1=
EXTT2=
EXTT3=
EXTT4=
EXTT5=
EXTT6=
EXTT7=
EXTT8=
EXTT9=
EXTT10=
EXTT11=
EXTT12=
PLAYORDER=
